<svg id="Layer_1" data-name="Layer 1" xmlns="http://www.w3.org/2000/svg" viewBox="0 0 176 176"><defs><style>.cls-1{fill:#fff;}</style></defs><title>d-logo</title><path class="cls-1" d="M138.52,164.76h-.24c-3.84,6.12-11.4,8.88-18.6,8.88-18.24,0-31.08-15.24-31.08-32.88S101.2,108,119.44,108c7.08,0,14.52,2.64,19.08,8V72h21.84v81.92a87.84,87.84,0,1,0-21.84,17.58Z" transform="translate(-7 -7)"/><path class="cls-1" d="M125.2,127c-8.88,0-14,6.36-14,13.92,0,7.8,5.16,13.8,14,13.8s14-6,14-13.8C139.24,133.32,134.08,127,125.2,127Z" transform="translate(-7 -7)"/></svg>