<svg id="Layer_1" data-name="Layer 1" xmlns="http://www.w3.org/2000/svg" viewBox="0 0 176.68 176.68"><defs><style>.cls-1,.cls-2{fill:#333;}.cls-1{stroke:#fff;stroke-miterlimit:10;}</style></defs><title>darklogo</title><path class="cls-1" d="M131.52,157.76h-.24c-3.84,6.12-11.4,8.88-18.6,8.88-18.24,0-31.08-15.24-31.08-32.88S94.2,101,112.44,101c7.08,0,14.52,2.64,19.08,8V65h21.84v81.92a87.83,87.83,0,1,0-21.84,17.58Z" transform="translate(0.27 0.18)"/><path class="cls-2" d="M118.2,120c-8.88,0-14,6.36-14,13.92,0,7.8,5.16,13.8,14,13.8s14-6,14-13.8C132.24,126.32,127.08,120,118.2,120Z" transform="translate(0.27 0.18)"/></svg>